<?xml version="1.0" encoding="UTF-8" standalone="no"?>
<svg xmlns="http://www.w3.org/2000/svg" xmlns:xlink="http://www.w3.org/1999/xlink" width="120px" height="76px" viewBox="0 0 120 76" version="1.1">
    
    <title>payment_013-american express-card</title>
    <desc>Created with Sketch.</desc>
    <defs/>
    <g id="round-rect" stroke="none" stroke-width="1" fill="none" fill-rule="evenodd">
        <g id="payment_013-american-express-card">
            <path d="M111.998561,0 L8.0014394,0 C3.58236644,0 0,3.58906554 0,8.00758637 L0,67.9924136 C0,72.4148815 3.59136164,76 8.0014394,76 L111.998561,76 C116.417634,76 120,72.4109345 120,67.9924136 L120,8.00758637 C120,3.58511853 116.408638,0 111.998561,0 Z" id="bg" fill="#227FBB"/>
            <path d="M10.8252689,27.310056 L8.51496951,21.6795784 L6.21787429,27.310056 L10.8252689,27.310056 Z M61.7208572,25.0680038 C61.2570084,25.3495916 60.7083975,25.3589636 60.0511718,25.3589636 L55.950646,25.3589636 L55.950646,22.2218798 L60.10697,22.2218798 C60.6951933,22.2218798 61.3089731,22.248292 61.7076531,22.4766294 C62.1455195,22.6823887 62.4164175,23.1203195 62.4164175,23.7252433 C62.4164175,24.3425212 62.1587237,24.8392404 61.7208572,25.0680038 C61.7208572,25.0680038 62.1587237,24.8392404 61.7208572,25.0680038 L61.7208572,25.0680038 L61.7208572,25.0680038 Z M90.9735747,27.310056 L88.6377189,21.6795784 L86.3146414,27.310056 L90.9735747,27.310056 L90.9735747,27.310056 L90.9735747,27.310056 L90.9735747,27.310056 Z M36.4447169,33.4044505 L32.9843792,33.4044505 L32.9716009,22.3428646 L28.0771227,33.4044505 L25.1134311,33.4044505 L20.2061747,22.3330665 L20.2061747,33.4044505 L13.3408714,33.4044505 L12.0438836,30.2541606 L5.01587119,30.2541606 L3.70567929,33.4044505 L0.0396124338,33.4044505 L6.08412908,19.2807573 L11.0991484,19.2807573 L16.8399697,32.6529817 L16.8399697,19.2807573 L22.3490796,19.2807573 L26.7665049,28.8619838 L30.8244367,19.2807573 L36.444291,19.2807573 L36.444291,33.4044505 L36.444291,33.4044505 L36.4447169,33.4044505 L36.4447169,33.4044505 Z M50.236233,33.4044505 L38.9603194,33.4044505 L38.9603194,19.2807573 L50.236233,19.2807573 L50.236233,22.2218798 L42.3358951,22.2218798 L42.3358951,24.7676719 L50.0466896,24.7676719 L50.0466896,27.6627862 L42.3358951,27.6627862 L42.3358951,30.48335 L50.236233,30.48335 L50.236233,33.4044505 L50.236233,33.4044505 L50.236233,33.4044505 L50.236233,33.4044505 Z M66.134875,23.0845353 C66.134875,25.3363855 64.6321581,26.4997988 63.7564252,26.8491211 C64.4950054,27.1302828 65.1258227,27.627002 65.4261106,28.0385206 C65.9027376,28.740999 65.984944,29.368501 65.984944,30.6298949 L65.984944,33.4044505 L62.5804044,33.4044505 L62.5676262,31.6233332 C62.5676262,30.7734578 62.6489808,29.5512561 62.0347751,28.8717818 C61.5415364,28.3750627 60.789752,28.267284 59.5745448,28.267284 L55.951072,28.267284 L55.951072,33.4044505 L52.5759222,33.4044505 L52.5759222,19.2807573 L60.3395333,19.2807573 C62.0645909,19.2807573 63.3355963,19.3263395 64.426855,19.9572495 C65.4946869,20.5881595 66.134875,21.5091773 66.134875,23.0845353 C66.134875,23.0845353 66.134875,21.5091773 66.134875,23.0845353 L66.134875,23.0845353 L66.134875,23.0845353 Z M71.5366479,33.4044505 L68.0924959,33.4044505 L68.0924959,19.2807573 L71.5366479,19.2807573 L71.5366479,33.4044505 L71.5366479,33.4044505 L71.5366479,33.4044505 L71.5366479,33.4044505 Z M111.493241,33.4044505 L106.709933,33.4044505 L100.311887,22.8037995 L100.311887,33.4044505 L93.4376385,33.4044505 L92.1240391,30.2541606 L85.1122123,30.2541606 L83.8377994,33.4044505 L79.8880564,33.4044505 C78.247335,33.4044505 76.1700249,33.0414962 74.9935782,31.8422986 C73.8073349,30.643101 73.1901476,29.0187528 73.1901476,26.4503825 C73.1901476,24.3557273 73.5590117,22.4408452 75.0097639,20.9276837 C76.1010226,19.8004805 77.8098944,19.2807573 80.1359536,19.2807573 L83.4037664,19.2807573 L83.4037664,22.3070804 L80.2045299,22.3070804 C78.972711,22.3070804 78.2771508,22.4902615 77.6071469,23.1437496 C77.0317018,23.7384494 76.6368553,24.8626705 76.6368553,26.3430299 C76.6368553,27.8561914 76.937569,28.9471843 77.5649788,29.6598868 C78.0846258,30.2188023 79.0289351,30.3883514 79.9174463,30.3883514 L81.4333673,30.3883514 L86.1906928,19.2811833 L91.2483061,19.2811833 L96.9631451,32.6402016 L96.9631451,19.2811833 L102.102539,19.2811833 L108.035885,29.1175854 L108.035885,19.2811833 L111.493241,19.2811833 L111.493241,33.4044505 L111.493241,33.4044505 L111.493241,33.4044505 L111.493241,33.4044505 Z M0.000425940148,36.17858 L5.76765555,36.17858 L7.06805082,33.0414962 L9.97935174,33.0414962 L11.2763395,36.17858 L22.623811,36.17858 L22.623811,33.7801848 L23.6366967,36.188804 L29.5274489,36.188804 L30.5403346,33.7444006 L30.5403346,36.17858 L58.7409799,36.17858 L58.7277758,31.0290595 L59.2734051,31.0290595 C59.6554734,31.0422655 59.7670697,31.0776238 59.7670697,31.7085337 L59.7670697,36.17858 L74.3525382,36.17858 L74.3525382,34.9798084 C75.5289849,35.6102924 77.3588238,36.17858 79.7666635,36.17858 L85.9027572,36.17858 L87.2159307,33.0414962 L90.1272316,33.0414962 L91.4114412,36.17858 L103.235966,36.17858 L103.235966,33.1986912 L105.026618,36.17858 L114.502083,36.17858 L114.502083,16.4802156 L105.124584,16.4802156 L105.124584,18.8066163 L103.811411,16.4802156 L94.1889969,16.4802156 L94.1889969,18.8066163 L92.9831603,16.4802156 L79.9855967,16.4802156 C77.8098944,16.4802156 75.8974232,16.7839555 74.3525382,17.6304228 L74.3525382,16.4802156 L65.3830906,16.4802156 L65.3830906,17.6304228 C64.4000207,16.7579693 63.060439,16.4802156 61.5709263,16.4802156 L28.8020728,16.4802156 L26.6033698,21.5679657 L24.3454611,16.4802156 L14.0240794,16.4802156 L14.0240794,18.8066163 L12.8902267,16.4802156 L4.0877476,16.4802156 L0,25.8458847 L0,36.17858 L0.000425940148,36.17858 Z M120.063157,46.5790097 L113.911304,46.5790097 C113.297098,46.5790097 112.889047,46.6020138 112.545314,46.8341853 C112.189228,47.0629487 112.052075,47.4024729 112.052075,47.8506277 C112.052075,48.3835571 112.352789,48.7460854 112.790229,48.9028543 C113.146315,49.0268211 113.528809,49.0630314 114.09105,49.0630314 L115.920463,49.1120217 C117.766488,49.1576039 118.998733,49.474976 119.750091,50.2490228 C119.886818,50.3568015 119.969024,50.4777863 120.063157,50.5987711 L120.063157,46.5790097 Z M120.063157,55.8927065 C119.243222,57.0919041 117.645521,57.6998099 115.482597,57.6998099 L108.964009,57.6998099 L108.964009,54.6705048 L115.456189,54.6705048 C116.10021,54.6705048 116.550855,54.5857302 116.822179,54.3207566 C117.057298,54.1022172 117.221284,53.7848452 117.221284,53.3993127 C117.221284,52.9877941 117.057298,52.6610501 116.808974,52.4650888 C116.564059,52.2495315 116.207547,52.1515509 115.61975,52.1515509 C112.450329,52.0437722 108.496326,52.2495315 108.496326,47.7790592 C108.496326,45.7299863 109.797148,43.5731347 113.339266,43.5731347 L120.062731,43.5731347 L120.062731,40.7623689 L113.815893,40.7623689 C111.930682,40.7623689 110.561284,41.2139318 109.591419,41.9159842 L109.591419,40.7623689 L100.351499,40.7623689 C98.8739126,40.7623689 97.1394843,41.1287312 96.3191236,41.9159842 L96.3191236,40.7623689 L79.8190541,40.7623689 L79.8190541,41.9159842 C78.5058806,40.9685542 76.29014,40.7623689 75.2674577,40.7623689 L64.383835,40.7623689 L64.383835,41.9159842 C63.344967,40.9097659 61.0346676,40.7623689 59.6265095,40.7623689 L47.4458991,40.7623689 L44.6585467,43.77932 L42.0479596,40.7623689 L23.8526483,40.7623689 L23.8526483,60.4743654 L41.7055037,60.4743654 L44.5776181,57.4097021 L47.2831899,60.4743654 L58.2877796,60.4841635 L58.2877796,55.8471242 L59.3696676,55.8471242 C60.8297904,55.8697023 62.5518664,55.810914 64.0711949,55.1540178 L64.0711949,60.4739394 L73.1479795,60.4739394 L73.1479795,55.336347 L73.585846,55.336347 C74.1446795,55.336347 74.1996257,55.3593511 74.1996257,55.9178406 L74.1996257,60.4735134 L101.773287,60.4735134 C103.523901,60.4735134 105.35374,60.0253586 106.367052,59.2121195 L106.367052,60.4735134 L115.113307,60.4735134 C116.933349,60.4735134 118.710797,60.2183378 120.063157,59.5648497 L120.063157,55.8927065 L120.063157,55.8927065 L120.063157,55.8927065 L120.063157,55.8927065 Z M106.598763,50.2490228 C107.255989,50.9293491 107.608241,51.7881706 107.608241,53.2421177 C107.608241,56.2812209 105.709826,57.6998099 102.305712,57.6998099 L95.7313262,57.6998099 L95.7313262,54.6705048 L102.279304,54.6705048 C102.919492,54.6705048 103.373544,54.5857302 103.658072,54.3207566 C103.89021,54.1022172 104.056752,53.7848452 104.056752,53.3993127 C104.056752,52.9877941 103.87658,52.6610501 103.644868,52.4650888 C103.386748,52.2495315 103.030662,52.1515509 102.442865,52.1515509 C99.2862226,52.0437722 95.3330721,52.2495315 95.3330721,47.7790592 C95.3330721,45.7299863 96.6202633,43.5731347 100.158974,43.5731347 L106.925885,43.5731347 L106.925885,46.5798617 L100.733993,46.5798617 C100.120213,46.5798617 99.7211075,46.6028658 99.3816332,46.8350373 C99.0119172,47.0638007 98.8747645,47.4033249 98.8747645,47.8514797 C98.8747645,48.3844091 99.1886824,48.7469374 99.6133447,48.9037063 C99.9694306,49.0276731 100.351925,49.0638834 100.926944,49.0638834 L102.744005,49.1128737 C104.576399,49.1576039 105.834201,49.47455 106.598763,50.2490228 C106.598763,50.2490228 105.834201,49.47455 106.598763,50.2490228 L106.598763,50.2490228 L106.598763,50.2490228 Z M76.140635,49.3765693 C75.6891384,49.644525 75.1307309,49.6675292 74.4739312,49.6675292 L70.3734054,49.6675292 L70.3734054,46.4946611 L74.5297293,46.4946611 C75.1307309,46.4946611 75.7321584,46.5074412 76.140635,46.7498367 C76.5780755,46.9786002 76.8396028,47.416105 76.8396028,48.0206028 C76.8396028,48.6251006 76.5780755,49.1120217 76.140635,49.3765693 C76.140635,49.3765693 76.5780755,49.1120217 76.140635,49.3765693 L76.140635,49.3765693 L76.140635,49.3765693 Z M78.1791845,51.1346824 C78.930543,51.4120102 79.5447487,51.9091553 79.8326842,52.3206739 C80.3093112,53.0103723 80.3783135,53.6540623 80.3919436,54.8992682 L80.3919436,57.6998099 L77.0031638,57.6998099 L77.0031638,55.9323247 C77.0031638,55.0824494 77.0849443,53.8240374 76.4575345,53.1671413 C75.9642958,52.6610501 75.2125114,52.5400653 73.9811184,52.5400653 L70.3738313,52.5400653 L70.3738313,57.6998099 L66.9820699,57.6998099 L66.9820699,43.5727087 L74.7750709,43.5727087 C76.4839427,43.5727087 77.7285399,43.6481112 78.8364102,44.2394029 C79.9016865,44.883093 80.5716903,45.7649185 80.5716903,47.3764867 C80.5712644,49.6313189 79.0676957,50.7819522 78.1791845,51.1346824 C78.1791845,51.1346824 79.0676957,50.7819522 78.1791845,51.1346824 L78.1791845,51.1346824 L78.1791845,51.1346824 Z M82.4432714,43.5727087 L93.7089623,43.5727087 L93.7089623,46.4942351 L85.804791,46.4942351 L85.804791,49.0626053 L93.5160115,49.0626053 L93.5160115,51.9449396 L85.804791,51.9449396 L85.804791,54.7557053 L93.7089623,54.7684854 L93.7089623,57.6998099 L82.4432714,57.6998099 L82.4432714,43.5727087 L82.4432714,43.5727087 L82.4432714,43.5727087 L82.4432714,43.5727087 Z M59.6695294,50.0922539 L55.3074764,50.0922539 L55.3074764,46.4946611 L59.7087159,46.4946611 C60.9273307,46.4946611 61.7732478,46.9913803 61.7732478,48.2267881 C61.7732478,49.4485638 60.9665172,50.0922539 59.6695294,50.0922539 L59.6695294,50.0922539 L59.6695294,50.0922539 L59.6695294,50.0922539 Z M51.9455308,56.4149858 L46.763117,50.6605414 L51.9455308,45.0888523 L51.9455308,56.4149858 L51.9455308,56.4149858 L51.9455308,56.4149858 L51.9455308,56.4149858 Z M38.5620654,54.7557053 L30.2630475,54.7557053 L30.2630475,51.9449396 L37.6735542,51.9449396 L37.6735542,49.0626053 L30.2630475,49.0626053 L30.2630475,46.4942351 L38.7256264,46.4942351 L42.4176756,50.6111251 L38.5620654,54.7557053 L38.5620654,54.7557053 L38.5620654,54.7557053 L38.5620654,54.7557053 Z M65.3971466,48.2267881 C65.3971466,52.1511249 62.46966,52.961382 59.5191726,52.961382 L55.3074764,52.961382 L55.3074764,57.6998099 L48.7467203,57.6998099 L44.5903963,53.0231524 L40.2709373,57.6998099 L26.900676,57.6998099 L26.900676,43.5727087 L40.4766664,43.5727087 L44.6295828,48.2033579 L48.9230595,43.5727087 L59.7087159,43.5727087 C62.3874535,43.5727087 65.3971466,44.3143794 65.3971466,48.2267881 C65.3971466,48.2267881 65.3971466,44.3143794 65.3971466,48.2267881 L65.3971466,48.2267881 L65.3971466,48.2267881 Z" id="Shape" fill="#FFFFFF"/>
        </g>
    </g>

	
	<metadata>
		<rdf:RDF xmlns:rdf="http://www.w3.org/1999/02/22-rdf-syntax-ns#" xmlns:rdfs="http://www.w3.org/2000/01/rdf-schema#" xmlns:dc="http://purl.org/dc/elements/1.1/">
			<rdf:Description about="https://iconscout.com/legal#licenses" dc:title="Payment, American, Express, Card, Bank, Transaction" dc:description="Payment, American, Express, Card, Bank, Transaction" dc:publisher="Iconscout" dc:date="2016-12-14" dc:format="image/svg+xml" dc:language="en">
				<dc:creator>
					<rdf:Bag>
						<rdf:li>Linh Pham</rdf:li>
					</rdf:Bag>
				</dc:creator>
			</rdf:Description>
		</rdf:RDF>
    </metadata></svg>
