<svg xmlns="http://www.w3.org/2000/svg" width="103.964" height="103.908" viewBox="0 0 103.964 103.908"><g data-name="google pay"><circle cx="51.954" cy="51.954" r="51.954" fill="#fff" data-name="Ellipse 24"/><path fill="#6e7bf2" d="M516.631,113.975a51.716,51.716,0,0,1-27.331-7.76L524.1,10.6a51.954,51.954,0,0,1-7.473,103.375Z" data-name="Path 186" transform="translate(-464.677 -10.067)"/><path fill="#4285f4" d="M451.524,978.8a11.01,11.01,0,0,0-.267-2.6H439.3v4.725h7.02a6.215,6.215,0,0,1-2.6,4.132l-.025.156,3.779,2.929.262.025a12.455,12.455,0,0,0,3.789-9.365" data-name="Path 187" transform="translate(-417.193 -927.074)"/><path fill="#34a853" d="M224.673,1082.421a12.144,12.144,0,0,0,8.434-3.085l-4.016-3.115a7.526,7.526,0,0,1-4.413,1.273,7.677,7.677,0,0,1-7.247-5.294l-.151.015-3.93,3.04-.05.141a12.694,12.694,0,0,0,11.373,7.025" data-name="Path 188" transform="translate(-202.566 -1018.243)"/><path fill="#fbbc05" d="M191.785,915.7a7.8,7.8,0,0,1-.423-2.521,8.268,8.268,0,0,1,.413-2.521l-.005-.166-3.981-3.09-.131.06a12.706,12.706,0,0,0,0,11.433l4.127-3.2" data-name="Path 189" transform="translate(-176.925 -861.736)"/><path fill="#eb4335" d="M224.483,774.207a7.026,7.026,0,0,1,4.922,1.9L233,772.6a12.246,12.246,0,0,0-8.52-3.311,12.721,12.721,0,0,0-11.378,7.02l4.116,3.2a7.707,7.707,0,0,1,7.267-5.294" data-name="Path 190" transform="translate(-202.376 -730.572)"/><path fill="#fff" d="M1024.659,793.577v9.254H1021.7V779.969h7.845a7.125,7.125,0,0,1,5.083,1.978,6.58,6.58,0,0,1,.377,9.3q-.181.2-.377.377a7.106,7.106,0,0,1-5.083,1.947l-4.886.005Zm0-10.794v7.981h4.957a3.979,3.979,0,0,0,3.029-6.663l-.03-.03a1.036,1.036,0,0,0-.076-.076,3.869,3.869,0,0,0-2.924-1.213Zm18.9,3.9a7.352,7.352,0,0,1,5.178,1.741,6.149,6.149,0,0,1,1.9,4.771v9.642h-2.828v-2.174h-.126a5.662,5.662,0,0,1-4.891,2.682,6.354,6.354,0,0,1-4.353-1.535,4.884,4.884,0,0,1-1.751-3.83,4.635,4.635,0,0,1,1.847-3.86,7.844,7.844,0,0,1,4.937-1.434,8.819,8.819,0,0,1,4.338.956v-.674a3.324,3.324,0,0,0-1.223-2.6,4.2,4.2,0,0,0-2.853-1.067,4.546,4.546,0,0,0-3.92,2.073l-2.6-1.63a7.226,7.226,0,0,1,6.351-3.065Zm-3.83,11.363a2.349,2.349,0,0,0,.976,1.917,3.62,3.62,0,0,0,2.3.765,4.712,4.712,0,0,0,3.326-1.374,4.28,4.28,0,0,0,1.469-3.226,6.084,6.084,0,0,0-3.86-1.1,5.016,5.016,0,0,0-3,.861,2.607,2.607,0,0,0-1.208,2.154Zm27.145-10.85L1057,809.726h-3.055l3.664-7.886-6.5-14.654h3.216l4.7,11.237h.065l4.564-11.237Z" data-name="Path 191" transform="translate(-970.284 -740.717)"/></g></svg>