<?xml version="1.0" encoding="UTF-8" standalone="no"?>
<svg xmlns="http://www.w3.org/2000/svg" xmlns:xlink="http://www.w3.org/1999/xlink" width="120px" height="76px" viewBox="0 0 120 76" version="1.1">
    
    <title>payment_003-maestro_card-card</title>
    <desc>Created with Sketch.</desc>
    <defs/>
    <g id="round-rect" stroke="none" stroke-width="1" fill="none" fill-rule="evenodd">
        <g id="payment_003-maestro_card-card">
            <path d="M111.998561,0 L8.0014394,0 C3.58236644,0 0,3.58906554 0,8.00758637 L0,67.9924136 C0,72.4148815 3.59136164,76 8.0014394,76 L111.998561,76 C116.417634,76 120,72.4109345 120,67.9924136 L120,8.00758637 C120,3.58511853 116.408638,0 111.998561,0 Z" id="bg" fill="#F4F4F4"/>
            <g id="logo-2" transform="translate(8.000000, 7.000000)">
                <path d="M52.3141688,54.7239231 C58.6430948,48.9910822 62.5988818,40.7057721 62.5988818,31.4973704 C62.5988818,22.2898025 58.6430948,14.0111634 52.3141688,8.2774886 C46.7765668,3.23759183 39.377271,0.170626187 31.3265906,0.170626187 C14.0149206,0.170626187 0.00765296065,14.1954481 0.00765296065,31.4973704 C0.00765296065,48.8059636 14.0149206,62.8307855 31.3265906,62.8307855 C39.376438,62.8316194 46.7757338,59.7579828 52.3141688,54.7239231" id="path618" fill="#2C97DE"/>
                <path d="M52.3141688,54.7239231 C58.6430948,48.9910822 62.5988818,40.7057721 62.5988818,31.4973704 C62.5988818,22.2898025 58.6430948,14.0111634 52.3141688,8.2774886 L52.3141688,54.7239231 Z" id="path620" fill="#4487CA"/>
                <path d="M73.3483935,0.171460055 C65.2510666,0.171460055 57.8517708,3.2384257 52.3141688,8.27832247 C51.1971525,9.30898303 50.1267827,10.4163594 49.1497058,11.5996178 L55.4786318,11.5996178 C56.3632487,12.6494573 57.1545727,13.7568337 57.8526038,14.915076 L46.7765668,14.915076 C46.1251822,15.9774235 45.5204441,17.0847999 44.9615195,18.2305342 L59.6668182,18.2305342 C60.1782633,19.3062237 60.5972486,20.4127662 60.9695873,21.5518296 L43.6579173,21.5518296 C43.2855786,22.627519 42.9598863,23.7348954 42.7274869,24.8672878 L61.9008507,24.8672878 C62.3664824,27.0053247 62.5988818,29.2259146 62.5988818,31.4982043 C62.5988818,34.9779344 62.0399572,38.3259135 60.9695873,41.450416 L43.6587503,41.450416 C44.031089,42.5886455 44.4500743,43.6960219 44.9615195,44.7708775 L59.6668182,44.7708775 C59.1078935,45.9174457 58.5498019,47.0239882 57.8517708,48.0871696 L46.7757338,48.0871696 C47.4737649,49.2454119 48.3117354,50.3527883 49.1497058,51.4034617 L55.4786318,51.4034617 C54.5015549,52.5858862 53.4311851,53.6932626 52.3141688,54.7239231 C57.8517708,59.7579828 65.2510666,62.8316194 73.3483935,62.8316194 C90.613417,62.8316194 104.620685,48.8067975 104.620685,31.4982043 C104.620685,14.196282 90.6125841,0.171460055 73.3483935,0.171460055" id="path624" fill="#E94B35"/>
                <path d="M101.316282,48.9018584 L101.456222,48.9018584 C101.503701,48.9018584 101.548682,48.9085293 101.548682,48.8885165 C101.596161,48.8635005 101.641975,48.8251426 101.641975,48.7876185 C101.641975,48.7484267 101.595328,48.7109027 101.548682,48.6917237 C101.548682,48.6725447 101.456222,48.6783818 101.456222,48.6783818 L101.316282,48.6783818 L101.316282,48.9018584 L101.316282,48.9018584 Z M101.316282,49.4105177 L101.130529,49.4105177 L101.130529,48.5199469 L101.502868,48.5199469 C101.595328,48.5199469 101.641975,48.5199469 101.735267,48.5649758 C101.781914,48.6158417 101.827727,48.6983946 101.827727,48.7884524 C101.827727,48.8893504 101.781081,48.9794081 101.687788,49.0160983 L101.827727,49.4113516 L101.595328,49.4113516 L101.502868,49.0552901 L101.315449,49.0552901 L101.315449,49.4105177 L101.316282,49.4105177 L101.316282,49.4105177 Z M101.456222,49.7357261 C101.875207,49.7357261 102.247546,49.3921726 102.247546,48.9652323 C102.247546,48.538292 101.875207,48.1947385 101.456222,48.1947385 C101.038069,48.1947385 100.711544,48.538292 100.711544,48.9652323 C100.711544,49.3921726 101.038069,49.7357261 101.456222,49.7357261 L101.456222,49.7357261 Z M100.432498,48.9652323 C100.432498,48.4048732 100.89813,47.9537507 101.456222,47.9537507 C102.015146,47.9537507 102.479945,48.4048732 102.479945,48.9652323 C102.479945,49.5255915 102.014313,49.9767139 101.456222,49.9767139 C100.89813,49.9767139 100.432498,49.5255915 100.432498,48.9652323 L100.432498,48.9652323 Z" id="path626" fill="#231F20"/>
                <polyline id="path628" fill="#231F20" points="26.4395402 40.2162917 22.4837532 40.2162917 24.8102458 28.0042983 19.4583967 40.2162917 16.2006407 40.2162917 15.5492562 28.0743432 12.9437178 40.2162917 9.36026957 40.2162917 12.3847932 24.3336124 18.5746127 24.3336124 18.6670727 34.1649134 22.948552 24.3336124 29.5098773 24.3336124 26.4395402 40.2162917"/>
                <path d="M69.9506982,40.0561891 C68.8803283,40.3497106 68.0423579,40.4764585 67.1585739,40.4764585 C65.1577737,40.4764585 64.0865709,39.4774849 64.0865709,37.6388065 C64.0865709,37.276074 64.0865709,36.8883255 64.1790308,36.4797303 L64.4114302,35.213919 L64.5980161,34.1957665 L66.4130634,24.3319447 L70.2755575,24.3319447 L69.7174658,27.2971785 L71.7182661,27.2971785 L71.1601744,30.434189 L69.1593742,30.434189 L68.1356508,35.8243102 C68.0890043,36.065298 68.0890043,36.2379086 68.0890043,36.3588195 C68.0890043,37.0267475 68.4613431,37.3194351 69.3917735,37.3194351 C69.8574052,37.3194351 70.1822645,37.2819111 70.4621433,37.1985243 L69.9506982,40.0561891" id="path630" fill="#231F20"/>
                <path d="M54.5015549,31.3772934 C54.5015549,33.0125081 55.3861718,34.1332264 57.479432,34.9787683 C59.06208,35.6283513 59.3402929,35.819307 59.3402929,36.4046822 C59.3402929,37.2135339 58.6422618,37.5745987 57.0612798,37.5745987 C55.897617,37.5745987 54.7806007,37.4169977 53.524478,37.0601023 L53.0121999,40.0436811 L53.1521393,40.069531 L53.8968168,40.2029499 C54.1292162,40.2413078 54.4557414,40.2796657 54.9205401,40.3171897 C55.8509706,40.3872346 56.5956481,40.4264264 57.1070933,40.4264264 C61.2494661,40.4264264 63.1578064,39.0580494 63.1578064,36.1119946 C63.1578064,34.3425272 62.3664824,33.2993586 60.4114957,32.5155229 C58.7363877,31.8601029 58.5506348,31.7200131 58.5506348,31.1162928 C58.5506348,30.4158439 59.2020194,30.0597824 60.4589751,30.0597824 C61.2494661,30.0597824 62.319836,30.1364982 63.2969128,30.257409 L63.8558375,27.2663253 C62.8321141,27.1262356 61.2961126,27.0119957 60.4114957,27.0119957 C55.99091,27.0119957 54.4549084,28.9974348 54.5015549,31.3772934" id="path632" fill="#231F20"/>
                <path d="M36.3985609,34.463438 C35.9804086,34.4184092 35.7938228,34.406735 35.513944,34.406735 C33.3273908,34.406735 32.2103746,35.0679922 32.2103746,36.3721613 C32.2103746,37.1735083 32.7684662,37.6896724 33.6064367,37.6896724 C35.1882517,37.6905063 36.3519144,36.3729952 36.3985609,34.463438 L36.3985609,34.463438 L36.3985609,34.463438 Z M39.0507457,40.2162917 L35.7929898,40.2162917 L35.8862827,38.8737646 C34.8625594,39.9361122 33.5597902,40.4389344 31.7905564,40.4389344 C29.6498167,40.4389344 28.2071081,39.0005125 28.2071081,36.9133415 C28.2071081,33.763823 30.7201865,31.9309816 35.0474793,31.9309816 C35.513111,31.9309816 36.0712027,31.9618347 36.6301273,32.0318796 C36.7692337,31.6057732 36.8158802,31.4214884 36.8158802,31.1921748 C36.8158802,30.333291 36.1178491,30.0147535 34.3028018,30.0147535 C33.1857855,30.0147535 31.9296628,30.1548433 31.0450459,30.377486 L30.5327677,30.5109048 L30.1604289,30.5934577 L30.7185206,27.6924318 C32.6726744,27.1954466 33.9287971,27.0053247 35.3715057,27.0053247 C38.7217216,27.0053247 40.4909554,28.3161649 40.4909554,30.7977553 C40.4909554,31.4339964 40.4443089,31.9176397 40.1652631,33.3560616 L39.3739391,37.9373311 L39.2348327,38.757857 L39.1415398,39.4132771 L39.0482468,39.8652334 L39.0482468,40.2162917 L39.0507457,40.2162917 Z" id="path634" fill="#231F20"/>
                <path d="M49.9410298,32.2486852 C49.9410298,31.9818476 49.9876763,31.7592049 49.9876763,31.5932652 C49.9876763,30.5434257 49.2896452,29.9255297 48.1259825,29.9255297 C46.8698597,29.9255297 45.9852428,30.7527265 45.6595505,32.2411804 L49.9410298,32.2486852 L49.9410298,32.2486852 Z M51.8485371,39.9361122 C50.4991215,40.2930076 49.1955193,40.4639505 47.8461037,40.4572795 C43.4721644,40.4572795 41.2381318,38.4718404 41.2381318,34.6735727 C41.2381318,30.2382301 44.123549,26.9736378 48.0326895,26.9736378 C51.242966,26.9736378 53.2912457,28.7998082 53.2912457,31.6691471 C53.2912457,32.6247596 53.1513063,33.5461835 52.7789675,34.8570236 L45.0539794,34.8570236 C45.007333,35.0538164 45.007333,35.1438741 45.007333,35.2639511 C45.007333,36.759076 46.1709957,37.5228989 48.4508418,37.5228989 C49.8469039,37.5228989 51.1038596,37.2752401 52.4999217,36.7082101 L51.8485371,39.9361122 L51.8485371,39.9361122 Z" id="path636" fill="#231F20"/>
                <path d="M89.4497543,32.8157153 C89.4497543,31.4665173 88.8916626,30.1873641 87.3098476,30.1873641 C85.3090474,30.1873641 84.0995711,32.5422067 84.0995711,34.6160358 C84.0995711,36.3663243 84.9367086,37.5437456 86.3336037,37.5170618 C87.1707412,37.5170618 88.9857885,36.3654904 89.3114808,34.3542014 C89.4031078,33.8905709 89.4497543,33.3760745 89.4497543,32.8157153 L89.4497543,32.8157153 Z M93.4055413,34.3608723 C92.8466166,38.6561252 89.822093,40.5598453 85.8204926,40.5598453 C81.4457203,40.5598453 79.6773195,37.8872991 79.6773195,34.6101988 C79.6773195,30.0280954 82.6560296,26.9294428 87.3098476,26.9294428 C91.3580946,26.9294428 93.4996672,29.4810781 93.4996672,32.7590123 C93.4988342,33.5536883 93.4988342,33.6103913 93.4055413,34.3608723 L93.4055413,34.3608723 Z" id="path638" fill="#231F20"/>
                <path d="M94.7083104,38.2308526 L94.8474169,38.2308526 C94.8474169,38.2308526 94.8948963,38.2308526 94.9407098,38.2116736 C94.9865233,38.1924947 94.9873563,38.1482997 94.9873563,38.1099418 C94.9873563,38.0782548 94.9873563,38.0398969 94.9407098,38.0215518 C94.9407098,38.0023728 94.8474169,38.0023728 94.8016034,38.0023728 L94.7083104,38.0023728 L94.7083104,38.2308526 L94.7083104,38.2308526 Z M94.7083104,38.7336749 L94.5217246,38.7336749 L94.5217246,37.8431041 L94.8940633,37.8431041 C94.9407098,37.8431041 95.0340027,37.849775 95.1264627,37.8948039 C95.1731092,37.9389989 95.2189227,38.0282227 95.2189227,38.1174466 C95.2189227,38.2125075 95.1722762,38.3084023 95.0798162,38.3459263 L95.2189227,38.7345087 L94.9865233,38.7345087 L94.8465839,38.3842843 L94.7083104,38.3842843 L94.7083104,38.7336749 L94.7083104,38.7336749 Z M94.8474169,39.0580494 C95.2672351,39.0580494 95.5929274,38.7144959 95.5929274,38.2875556 C95.5929274,37.8672862 95.2672351,37.5237327 94.8474169,37.5237327 C94.4292646,37.5237327 94.0569259,37.8672862 94.0569259,38.2875556 C94.0569259,38.7144959 94.4292646,39.0580494 94.8474169,39.0580494 L94.8474169,39.0580494 Z M93.8245265,38.2875556 C93.8245265,37.7338674 94.2901582,37.2827449 94.8482498,37.2827449 C95.4071745,37.2827449 95.8719732,37.7338674 95.8719732,38.2875556 C95.8719732,38.8479147 95.4063415,39.2990372 94.8482498,39.2990372 C94.2893252,39.2990372 93.8245265,38.8479147 93.8245265,38.2875556 L93.8245265,38.2875556 Z" id="path640" fill="#FFFFFF"/>
                <polyline id="path642" fill="#FFFFFF" points="27.4166171 39.2990372 23.5074766 39.2990372 25.8339691 27.0878776 20.48212 39.2990372 16.9453183 39.2990372 16.2939337 27.1645935 13.9674411 39.2990372 10.4306394 39.2990372 13.455163 23.4163579 19.5508566 23.4163579 19.8299025 33.2543298 24.1580282 23.4163579 30.4869542 23.4163579 27.4166171 39.2990372"/>
                <path d="M70.928608,39.1472733 C69.8582382,39.4399609 69.0202677,39.5667088 68.1356508,39.5667088 C66.1348506,39.5667088 65.0636478,38.5618981 65.0636478,36.7298906 C65.0636478,36.3663243 65.1102942,35.9794096 65.1569407,35.5716483 L65.3893401,34.3041693 L65.575093,33.2793458 L67.3909733,23.4163579 L71.2534673,23.4163579 L70.6953757,26.3815917 L72.6961759,26.3815917 L72.1372513,29.5252731 L70.136451,29.5252731 L69.1127277,34.9145605 C69.0660812,35.1505451 69.0660812,35.3281589 69.0660812,35.4499036 C69.0660812,36.1186655 69.4850665,36.4046822 70.4154969,36.4046822 C70.8344821,36.4046822 71.1610074,36.3663243 71.4392202,36.2829375 L70.928608,39.1472733" id="path644" fill="#FFFFFF"/>
                <path d="M80.9334422,30.0914693 L80.8409822,29.6845419 L81.6323062,27.6607448 C81.4448874,27.6415658 81.3524274,27.6357288 81.3524274,27.6232208 C81.1200281,27.5781919 81.0267351,27.5531759 80.9800886,27.5531759 C80.8876287,27.527326 80.7476893,27.5214889 80.6085829,27.5214889 C79.3058137,27.5214889 78.4211968,28.0876851 77.2108875,29.6153308 L77.6307057,27.3180252 L73.5816258,27.3180252 L71.2076538,40.2162917 L75.0709809,40.2162917 C75.5824261,37.256895 75.8156584,35.5716483 76.1413507,34.1707504 C76.6527959,31.8484287 78.3753833,30.7919183 79.631506,31.027069 C79.7706124,31.0529189 79.8639053,31.0529189 80.0496582,31.1229638 L80.2820576,31.2113537 L80.9334422,30.0914693" id="path646" fill="#231F20"/>
                <path d="M82.2828578,26.4899945 C81.9571655,26.3624127 81.9105191,26.3624127 81.8647056,26.3499047 C81.6772867,26.3048758 81.5381803,26.2798598 81.5381803,26.2731888 C81.3990739,26.2540099 81.2591345,26.2415019 81.1191951,26.2415019 C79.8630724,26.2415019 78.9326419,26.814369 77.7223327,28.3420148 L78.0946715,26.3815917 L74.5578697,26.3815917 L72.1838978,39.2990372 L76.0930383,39.2990372 C77.4891004,31.4023095 78.0938385,30.0155874 79.9555323,30.0155874 C80.0954717,30.0155874 80.2345782,30.0280954 80.421164,30.0472743 L80.8867957,30.1423353 L82.2828578,26.4899945" id="path648" fill="#FFFFFF"/>
                <path d="M55.4777988,30.4675437 C55.4777988,32.0960874 56.4082292,33.2226428 58.5031554,34.0690186 C60.0849704,34.7119306 60.3182027,34.9028863 60.3182027,35.4949325 C60.3182027,36.2962794 59.6201717,36.6590119 58.0841702,36.6590119 C56.8738609,36.6590119 55.8034911,36.4997431 54.5473684,36.1495187 L53.9892768,39.1280943 L54.1750296,39.1589474 L54.8730607,39.2856953 C55.1054601,39.331558 55.4786318,39.3690821 55.9434305,39.4016029 C56.8738609,39.4716478 57.571892,39.5091719 58.0841702,39.5091719 C62.2715235,39.5091719 64.1798638,38.1474658 64.1798638,35.201411 C64.1798638,33.4261065 63.3893728,32.388775 61.3877396,31.6057732 C59.7592781,30.9503531 59.5718593,30.8044263 59.5718593,30.1990383 C59.5718593,29.5052603 60.2240768,29.1491988 61.4801995,29.1491988 C62.2706906,29.1491988 63.2952469,29.2192437 64.3189702,29.3401545 L64.8770619,26.3499047 C63.8533386,26.2098149 62.31817,26.0947411 61.3877396,26.0947411 C57.0138003,26.095575 55.4777988,28.0810142 55.4777988,30.4675437" id="path650" fill="#FFFFFF"/>
                <path d="M37.2365314,33.5470174 C36.8175461,33.5028224 36.6309603,33.4961514 36.3519144,33.4961514 C34.1645283,33.4961514 33.047512,34.1574086 33.047512,35.4615777 C33.047512,36.2637585 33.5597902,36.7790888 34.4435742,36.7790888 C36.0262221,36.7799227 37.1432384,35.4557407 37.2365314,33.5470174 L37.2365314,33.5470174 L37.2365314,33.5470174 Z M40.0744691,39.2990372 L36.8167132,39.2990372 L36.9100061,37.963181 C35.9329292,39.0246947 34.5835136,39.5216799 32.8142797,39.5216799 C30.7201865,39.5216799 29.277478,38.083258 29.277478,35.996087 C29.277478,32.8515716 31.7905564,31.0137271 36.1178491,31.0137271 C36.5368344,31.0137271 37.094926,31.0512511 37.6996641,31.115459 C37.7929571,30.6885187 37.8387706,30.5109048 37.8387706,30.2757541 C37.8387706,29.4227074 37.1407395,29.1050038 35.3256922,29.1050038 C34.2086759,29.1050038 32.9517202,29.2384226 32.1145827,29.4610653 L31.556491,29.6011551 L31.2307988,29.6845419 L31.7430769,26.7760111 C33.6972307,26.2798598 34.9533534,26.095575 36.396062,26.095575 C39.7462779,26.095575 41.5155117,27.4064151 41.5155117,29.8821685 C41.5155117,30.5184096 41.4688653,31.0020529 41.2364659,32.439641 L40.3984954,37.0284153 L40.259389,37.8489412 L40.1660961,38.5043612 L40.1194496,38.9488127 L40.0744691,39.2990372 L40.0744691,39.2990372 Z" id="path652" fill="#FFFFFF"/>
                <path d="M50.7781673,31.3389355 L50.7781673,30.6768445 C50.7781673,29.627005 50.1267827,29.0157799 48.9631199,29.0157799 C47.7069972,29.0157799 46.8223803,29.8363058 46.4500415,31.3322646 L50.7781673,31.3389355 L50.7781673,31.3389355 Z M52.826447,39.0255286 C51.5228448,39.375753 50.2200756,39.5475298 48.869827,39.5475298 C44.4958878,39.5475298 42.2152087,37.5620906 42.2152087,33.757152 C42.2152087,29.3284803 45.0997929,26.063888 49.0089334,26.063888 C52.2200429,26.063888 54.2674896,27.8900584 54.2674896,30.7535603 C54.2674896,31.7083389 54.1275502,32.6372676 53.8010249,33.9472739 L46.0768698,33.9472739 C46.0302233,34.1449005 46.0302233,34.2341244 46.0302233,34.3542014 C46.0302233,35.8501601 47.1930531,36.613983 49.4270857,36.613983 C50.8231478,36.613983 52.0801035,36.3588195 53.4753326,35.7926232 L52.826447,39.0255286 L52.826447,39.0255286 Z" id="path654" fill="#FFFFFF"/>
                <path d="M90.3801847,31.7908918 C90.3801847,30.4416938 89.822093,29.1633745 88.240278,29.1633745 C86.2394778,29.1633745 85.0300015,31.5173832 85.0300015,33.5920462 C85.0300015,35.3481717 85.867972,36.5264269 87.2640341,36.4997431 C88.1020046,36.4997431 89.9162189,35.3481717 90.2419112,33.3368827 C90.3343712,32.8657474 90.3801847,32.351251 90.3801847,31.7908918 L90.3801847,31.7908918 Z M94.4292646,33.4461194 C93.8236935,37.7405383 90.8449834,39.6492617 86.8442159,39.6492617 C82.4227972,39.6492617 80.6543964,36.9700445 80.6543964,33.6929442 C80.6543964,29.1175118 83.6789199,26.0130221 88.333571,26.0130221 C92.3809849,26.0130221 94.5225576,28.5646575 94.5225576,31.8417578 C94.5225576,32.6431047 94.5225576,32.6948045 94.4292646,33.4461194 L94.4292646,33.4461194 Z" id="path656" fill="#FFFFFF"/>
            </g>
        </g>
    </g>

	
	<metadata>
		<rdf:RDF xmlns:rdf="http://www.w3.org/1999/02/22-rdf-syntax-ns#" xmlns:rdfs="http://www.w3.org/2000/01/rdf-schema#" xmlns:dc="http://purl.org/dc/elements/1.1/">
			<rdf:Description about="https://iconscout.com/legal#licenses" dc:title="Payment, Maestro, Card, Pay, Bank, Transaction" dc:description="Payment, Maestro, Card, Pay, Bank, Transaction" dc:publisher="Iconscout" dc:date="2016-12-14" dc:format="image/svg+xml" dc:language="en">
				<dc:creator>
					<rdf:Bag>
						<rdf:li>Linh Pham</rdf:li>
					</rdf:Bag>
				</dc:creator>
			</rdf:Description>
		</rdf:RDF>
    </metadata></svg>
