<?xml version="1.0" encoding="UTF-8" standalone="no"?>
<svg xmlns="http://www.w3.org/2000/svg" xmlns:xlink="http://www.w3.org/1999/xlink" width="120px" height="76px" viewBox="0 0 120 76" version="1.1">
    
    <title>payment_002-master-card</title>
    <desc>Created with Sketch.</desc>
    <defs/>
    <g id="round-rect" stroke="none" stroke-width="1" fill="none" fill-rule="evenodd">
        <g id="payment_002-master-card">
            <path d="M111.998561,0 L8.0014394,0 C3.58236644,0 0,3.58906554 0,8.00758637 L0,67.9924136 C0,72.4148815 3.59136164,76 8.0014394,76 L111.998561,76 C116.417634,76 120,72.4109345 120,67.9924136 L120,8.00758637 C120,3.58511853 116.408638,0 111.998561,0 Z" id="bg" fill="#227FBB"/>
            <g id="Group" transform="translate(8.000000, 6.000000)">
                <path d="M104.406698,31.6426702 C104.411632,49.0791252 90.4335001,63.2168492 73.1860499,63.2214812 C55.9382473,63.225757 41.9541235,49.0951592 41.9495417,31.6587042 L41.9495417,31.6426702 C41.9449599,14.2065715 55.923092,0.068134828 73.1698373,0.0635027797 C90.4176399,0.0588707314 104.402116,14.1901811 104.406698,31.6266361 L104.406698,31.6426702 C104.406698,31.6426702 104.406698,31.6369692 104.406698,31.6426702 L104.406698,31.6426702 L104.406698,31.6426702 Z" id="path2268" fill="#F2C500"/>
                <path d="M31.0863549,0.071697942 C13.941115,0.181798167 0.0588489904,14.2835347 0.0588489904,31.6426702 C0.0588489904,49.0695048 14.0493168,63.2132861 31.2876033,63.2132861 C39.3780729,63.2132861 46.7527183,60.0962739 52.3020297,54.9874809 C52.3016773,54.9874809 52.3009724,54.9867683 52.2995626,54.9860557 L52.3062591,54.9860557 C53.4425551,53.9392128 54.5023696,52.8097056 55.476539,51.605373 L49.0785301,51.605373 C48.2241934,50.5620932 47.447748,49.4749871 46.7502512,48.3533188 L57.7847283,48.3533188 C58.4557914,47.267638 59.0634137,46.1402687 59.6026608,44.9726362 L44.9284417,44.9726362 C44.4283164,43.8887369 43.9940991,42.7802521 43.6233226,41.6557333 L60.9091897,41.6557333 C61.9510293,38.508791 62.5163577,35.1420045 62.5163577,31.6423138 C62.5163577,29.322014 62.2675286,27.0597928 61.7966566,24.8816612 L42.7066024,24.8816612 C42.9430958,23.7607055 43.2416202,22.6532897 43.5975938,21.5651146 L60.889805,21.5651146 C60.5031683,20.4071026 60.0541481,19.2786643 59.5434494,18.1847883 L44.9266794,18.1847883 C45.4539433,17.0460171 46.0513446,15.9382449 46.7185308,14.8685981 L57.7449015,14.8685981 C57.0111024,13.6867131 56.1990597,12.5575623 55.3211089,11.4879154 L49.1733389,11.4879154 C50.1238942,10.356983 51.1703156,9.29196822 52.3062591,8.29892833 C46.7565953,3.18942275 39.3798352,0.071697942 31.2876033,0.071697942 C31.2202856,0.071697942 31.1536727,0.0713416306 31.0863549,0.071697942 C31.0863549,0.071697942 31.1536727,0.0713416306 31.0863549,0.071697942 L31.0863549,0.071697942 L31.0863549,0.071697942 Z" id="path1350" fill="#E94B35"/>
                <path d="M42.5173372,39.6806992 L42.9335796,36.823438 C42.70625,36.823438 42.3717757,36.92178 42.0767758,36.92178 C40.9193329,36.92178 40.7917463,36.2996602 40.8654082,35.8396622 L41.8004557,30.009695 L43.5595293,30.009695 L43.9842305,26.8492128 L42.3256049,26.8492128 L42.6632512,24.8837991 L39.3382462,24.8837991 C39.2649367,24.9579119 37.375457,35.9376479 37.375457,37.2745283 C37.375457,39.2538381 38.4747458,40.1353525 40.0248171,40.1211001 C41.2386518,40.1107671 42.1839204,39.7712023 42.5173372,39.6806992 C42.5173372,39.6806992 42.1839204,39.7712023 42.5173372,39.6806992 L42.5173372,39.6806992 L42.5173372,39.6806992 Z" id="path4157" fill="#FFFFFF"/>
                <path d="M43.5708077,34.2330541 C43.5708077,38.9833978 46.6723599,40.1121923 49.314671,40.1121923 C51.7536189,40.1121923 52.8268265,39.5609786 52.8268265,39.5609786 L53.4125969,36.3189011 C53.4125969,36.3189011 51.5573047,37.1451872 49.8817616,37.1451872 C46.311452,37.1451872 46.9366968,34.4539672 46.9366968,34.4539672 L53.6938513,34.4539672 C53.6938513,34.4539672 54.1301833,32.2758355 54.1301833,31.3882638 C54.1301833,29.1734321 53.0397057,26.4747295 49.3890377,26.4747295 C46.0457054,26.4754421 43.5708077,30.117301 43.5708077,34.2330541 C43.5708077,34.2330541 43.5708077,30.117301 43.5708077,34.2330541 L43.5708077,34.2330541 L43.5708077,34.2330541 Z M49.4017259,29.4852046 C51.278165,29.4852046 50.93206,31.6170157 50.93206,31.7894705 L47.2405079,31.7894705 C47.2405079,31.56927 47.5894325,29.4852046 49.4017259,29.4852046 C49.4017259,29.4852046 47.5894325,29.4852046 49.4017259,29.4852046 L49.4017259,29.4852046 L49.4017259,29.4852046 Z" id="path4155" fill="#FFFFFF"/>
                <path d="M70.4570364,39.6792739 L71.0519705,36.0146111 C71.0519705,36.0146111 69.4204835,36.8416099 68.3007527,36.8416099 C65.9421632,36.8416099 64.9961897,35.0208586 64.9961897,33.064709 C64.9961897,29.0964688 67.0255918,26.9133489 69.2847906,26.9133489 C70.9790135,26.9133489 72.3387623,27.8750333 72.3387623,27.8750333 L72.8815339,24.3144134 C72.8815339,24.3144134 70.8651725,23.4895525 69.136762,23.4895525 C65.2982386,23.4895525 61.5640402,26.8559827 61.5640402,33.1783723 C61.5640402,37.3707323 63.5804016,40.1396283 67.5482738,40.1396283 C68.6701194,40.1399846 70.4570364,39.6792739 70.4570364,39.6792739 L70.4570364,39.6792739 L70.4570364,39.6792739 L70.4570364,39.6792739 Z" id="path4151" fill="#FFFFFF"/>
                <path d="M24.2298097,26.5271073 C21.9498163,26.5271073 20.2020211,27.2678787 20.2020211,27.2678787 L19.7195183,30.1636215 C19.7195183,30.1636215 21.1620926,29.5710756 23.3426953,29.5710756 C24.580849,29.5710756 25.4866433,29.7118186 25.4866433,30.7290877 C25.4866433,31.3469317 25.3756218,31.574971 25.3756218,31.574971 C25.3756218,31.574971 24.3989853,31.4923067 23.9467931,31.4923067 C21.0711607,31.4923067 18.0503193,32.7329831 18.0503193,36.4735402 C18.0503193,39.4209482 20.0321407,40.0972272 21.2604259,40.0972272 C23.6063272,40.0972272 24.6175037,38.5583183 24.6714284,38.5536862 L24.5618168,39.8381888 L27.4896116,39.8381888 L28.7957881,30.5808622 C28.7957881,26.6535978 25.4069898,26.5271073 24.2298097,26.5271073 L24.2298097,26.5271073 L24.2298097,26.5271073 L24.2298097,26.5271073 Z M24.9421094,34.0645188 C25.0055502,34.629985 24.5914225,37.2805855 22.5895115,37.2805855 C21.5568356,37.2805855 21.2882693,36.4831606 21.2882693,36.0114043 C21.2882693,35.0914083 21.7827555,33.9868429 24.2192362,33.9868429 C24.7859744,33.9875555 24.8465957,34.0488411 24.9421094,34.0645188 C24.9421094,34.0645188 24.8465957,34.0488411 24.9421094,34.0645188 L24.9421094,34.0645188 L24.9421094,34.0645188 Z" id="path4149" fill="#FFFFFF"/>
                <path d="M31.9075613,40.0295281 C32.6565157,40.0295281 36.9380677,40.2219362 36.9380677,35.7555727 C36.9380677,31.5799593 32.9747773,32.4048203 32.9747773,30.7273062 C32.9747773,29.8921122 33.6208165,29.6291544 34.8015211,29.6291544 C35.2702784,29.6291544 37.0737606,29.7798741 37.0737606,29.7798741 L37.493175,26.8118001 C37.493175,26.8121564 36.3258635,26.5477733 34.4254579,26.5477733 C31.9657155,26.5477733 29.4689659,27.5404569 29.4689659,30.9368173 C29.4689659,34.7853368 33.6320949,34.3990952 33.6320949,36.0203121 C33.6320949,37.1024298 32.4690128,37.1904388 31.5727347,37.1904388 C30.0216061,37.1904388 28.6248502,36.6524085 28.619916,36.678063 L28.176535,39.6162068 C28.2568934,39.6411486 29.118279,40.0295281 31.9075613,40.0295281 C31.9075613,40.0295281 29.118279,40.0295281 31.9075613,40.0295281 L31.9075613,40.0295281 L31.9075613,40.0295281 Z" id="path4145" fill="#FFFFFF"/>
                <path d="M97.9991729,23.8636795 L97.281939,28.3628237 C97.281939,28.3628237 96.0303922,26.6151162 94.0711275,26.6151162 C91.0245573,26.6151162 88.4851614,30.3285937 88.4851614,34.5954228 C88.4851614,37.34971 89.8396233,40.0484126 92.6084636,40.0484126 C94.6001536,40.0484126 95.7043767,38.6445456 95.7043767,38.6445456 L95.5581103,39.8435335 L98.7921835,39.8435335 L101.332284,23.8583348 L97.9991729,23.8636795 L97.9991729,23.8636795 L97.9991729,23.8636795 L97.9991729,23.8636795 Z M96.4550933,32.6360664 C96.4550933,34.4115661 95.5856014,36.7831748 93.7828241,36.7831748 C92.5862593,36.7831748 92.0255128,35.7676873 92.0255128,34.1739064 C92.0255128,31.5678448 93.1833082,29.8482859 94.6442098,29.8482859 C95.841127,29.8479296 96.4550933,30.6792041 96.4550933,32.6360664 C96.4550933,32.6360664 96.4550933,30.6792041 96.4550933,32.6360664 L96.4550933,32.6360664 L96.4550933,32.6360664 Z" id="path4139" fill="#FFFFFF"/>
                <polygon id="path4133" fill="#FFFFFF" points="6.22635616 39.8574296 8.25047146 27.7891623 8.54758607 39.8574296 10.8385054 39.8574296 15.1119509 27.7891623 13.2189467 39.8574296 16.6229003 39.8574296 19.2444169 23.8508523 13.9805893 23.8508523 10.70246 33.6718636 10.5318746 23.8508523 5.67970757 23.8508523 3.02047895 39.8574296 6.22635616 39.8574296 6.22635616 39.8574296"/>
                <path d="M57.4555408,39.879521 C58.4233661,34.315362 58.6027627,29.7973334 60.9123618,30.6243322 C61.3166209,28.470786 61.7067821,27.6377299 62.1480484,26.7262854 C62.1480484,26.7262854 61.9411607,26.6824591 61.5069434,26.6824591 C60.0178459,26.6824591 58.9146801,28.7390885 58.9146801,28.7390885 L59.2110898,26.8502817 L56.1151768,26.8502817 L54.0410137,39.879521 L57.4555408,39.879521 L57.4555408,39.879521 L57.4555408,39.879521 L57.4555408,39.879521 Z" id="path4131" fill="#FFFFFF"/>
                <path d="M78.1292193,26.5271073 C75.849226,26.5271073 74.1014308,27.2678787 74.1014308,27.2678787 L73.6192804,30.1636215 C73.6192804,30.1636215 75.0618546,29.5710756 77.2424574,29.5710756 C78.4806111,29.5710756 79.3857005,29.7118186 79.3857005,30.7290877 C79.3857005,31.3469317 79.2753839,31.574971 79.2753839,31.574971 C79.2753839,31.574971 78.2987474,31.4923067 77.8462027,31.4923067 C74.9709228,31.4923067 71.9500814,32.7329831 71.9500814,36.4735402 C71.9500814,39.4209482 73.9315503,40.0972272 75.1598355,40.0972272 C77.5057369,40.0972272 78.5169134,38.5583183 78.5704856,38.5536862 L78.4615789,39.8381888 L81.3893737,39.8381888 L82.6951977,30.5808622 C82.6955502,26.6535978 79.3063994,26.5271073 78.1292193,26.5271073 L78.1292193,26.5271073 L78.1292193,26.5271073 L78.1292193,26.5271073 Z M78.8425764,34.0645188 C78.9060172,34.629985 78.491537,37.2805855 76.4889211,37.2805855 C75.4562452,37.2805855 75.1883839,36.4831606 75.1883839,36.0114043 C75.1883839,35.0914083 75.68287,33.9868429 78.1189983,33.9868429 C78.6857365,33.9875555 78.7460053,34.0488411 78.8425764,34.0645188 C78.8425764,34.0645188 78.7460053,34.0488411 78.8425764,34.0645188 L78.8425764,34.0645188 L78.8425764,34.0645188 Z" id="path4149_1_" fill="#FFFFFF"/>
                <path d="M85.3711677,39.879521 C86.3393454,34.315362 86.518742,29.7973334 88.8276362,30.6243322 C89.2326002,28.470786 89.6231139,27.6377299 90.0640277,26.7262854 C90.0640277,26.7262854 89.8571401,26.6824591 89.4229228,26.6824591 C87.9338252,26.6824591 86.8306595,28.7390885 86.8306595,28.7390885 L87.1270692,26.8502817 L84.0311561,26.8502817 L81.956993,39.879521 L85.3711677,39.879521 L85.3711677,39.879521 L85.3711677,39.879521 L85.3711677,39.879521 Z" id="path4131_1_" fill="#FFFFFF"/>
            </g>
        </g>
    </g>

	
	<metadata>
		<rdf:RDF xmlns:rdf="http://www.w3.org/1999/02/22-rdf-syntax-ns#" xmlns:rdfs="http://www.w3.org/2000/01/rdf-schema#" xmlns:dc="http://purl.org/dc/elements/1.1/">
			<rdf:Description about="https://iconscout.com/legal#licenses" dc:title="Payment, Master, Card, Pay, Transaction, Bank" dc:description="Payment, Master, Card, Pay, Transaction, Bank" dc:publisher="Iconscout" dc:date="2016-12-14" dc:format="image/svg+xml" dc:language="en">
				<dc:creator>
					<rdf:Bag>
						<rdf:li>Linh Pham</rdf:li>
					</rdf:Bag>
				</dc:creator>
			</rdf:Description>
		</rdf:RDF>
    </metadata></svg>
